<?xml version="1.0" encoding="UTF-8" standalone="no"?>
<svg width="40px" height="80px" viewBox="0 0 40 80" version="1.1" xmlns="http://www.w3.org/2000/svg" xmlns:xlink="http://www.w3.org/1999/xlink">
    <!-- Generator: Sketch 40.3 (33839) - http://www.bohemiancoding.com/sketch -->
    <title>Plant 2</title>
    <desc>Created with Sketch.</desc>
    <defs></defs>
    <g id="Page-1" stroke="none" stroke-width="1" fill="none" fill-rule="evenodd">
        <g id="Plant-2" fill="#E8E8EC">
            <g id="A-Little-More-Plant" transform="translate(0.000000, 16.000000)">
                <g id="Group-10" transform="translate(0.000000, 1.000000)">
                    <path d="M7.266,58.3798927 C9.536,61.2036319 14.736,62.6144262 19.934,62.6144262 C25.136,62.6144262 30.332,61.2036319 32.604,58.3798927 C32.766,57.5110498 40,18.6625917 40,17.7722428 C40,12.4538063 25.324,11 20,11 C10.016,11 1.42108547e-14,13.6710466 1.42108547e-14,17.7614898 C1.42108547e-14,18.6346339 7.112,57.5218028 7.266,58.3798927 L7.266,58.3798927 Z M20.102,22.0691438 C11.68,22.0691438 4.852,20.4647954 4.852,18.4840918 C4.852,16.5033882 11.68,14.8990398 20.102,14.8990398 C28.524,14.8990398 35.35,16.5033882 35.35,18.4840918 C35.35,20.4647954 28.524,22.0691438 20.102,22.0691438 L20.102,22.0691438 Z" id="Shape"></path>
                    <ellipse id="Oval-13" cx="20.3649998" cy="21.5336538" rx="11.3649998" ry="3.53365385"></ellipse>
                    <g id="Group-4" transform="translate(19.000000, 0.000000)">
                        <path d="M0.714101338,8.13088782 C1.90155073,6.45288215 4.11356929,4.64773577 5.65305015,4.30533701 C2.50709738,6.48435263 0.746940093,9.54202387 0.518382356,13.0012584 L1.84638162,13.0012584 C1.81616997,11.6946043 2.0105754,10.0493279 2.49921608,9.30788355 C3.69586033,9.68804687 5.02648669,9.46523591 6.17321603,8.53622753 C8.4377766,6.69457539 7.58790961,2.06589809 11.5745345,1.53215886 C6.22838514,-1.2674545 1.14100516,1.68825241 0.168977999,4.89446429 C-0.160723105,5.97956623 -0.0228003328,7.1200562 0.714101338,8.13088782 Z" id="Path"></path>
                        <path d="M0.578526511,12.6242246 C0.125682531,15.140438 0.262645905,21.4611583 0.262645905,21.4611583 C0.262645905,21.4611583 2.28708783,23.34009 1.99958837,21.2569383 C1.71208892,19.1737865 1.8530326,12.6242246 1.8530326,12.6242246 C1.8530326,12.6242246 1.03137049,10.1080113 0.578526511,12.6242246 Z" id="Path-2"></path>
                    </g>
                </g>
            </g>
        </g>
    </g>
</svg>